<?xml version="1.0" standalone="no"?>
<!DOCTYPE svg PUBLIC "-//W3C//DTD SVG 20010904//EN"
 "http://www.w3.org/TR/2001/REC-SVG-20010904/DTD/svg10.dtd">
<svg version="1.0" xmlns="http://www.w3.org/2000/svg"
 width="285.000000pt" height="285.000000pt" viewBox="0 0 285.000000 285.000000"
 preserveAspectRatio="xMidYMid meet">
<metadata>
Created by potrace 1.11, written by Peter Selinger 2001-2013
</metadata>
<g transform="translate(0.000000,285.000000) scale(0.100000,-0.100000)"
fill="#000000" stroke="none">
<path d="M625 2259 c-160 -14 -329 -100 -443 -225 -196 -213 -241 -568 -106
-842 47 -97 139 -216 210 -275 68 -55 195 -121 274 -142 125 -34 298 -29 417
11 233 78 399 252 474 494 30 97 33 308 6 410 -56 213 -224 404 -450 511 -106
50 -239 70 -382 58z m52 -215 c-111 -20 -180 -56 -262 -139 -116 -116 -163
-232 -166 -410 -1 -75 -3 -83 -10 -50 -31 154 33 357 151 475 86 86 206 137
325 138 28 0 17 -4 -38 -14z m216 -64 c80 -25 170 -91 214 -157 56 -84 77
-163 77 -288 1 -160 -38 -264 -140 -374 -102 -111 -259 -166 -403 -141 -177
30 -286 135 -335 325 -18 67 -21 218 -5 285 36 158 166 305 308 351 78 25 201
24 284 -1z m543 -530 c-9 -178 -76 -329 -197 -451 -123 -123 -267 -187 -433
-194 l-91 -4 76 8 c232 25 442 167 548 371 59 113 82 209 83 355 1 108 2 115
10 65 5 -30 7 -98 4 -150z m-753 -647 c-13 -2 -33 -2 -45 0 -13 2 -3 4 22 4
25 0 35 -2 23 -4z"/>
<path d="M1650 1540 c0 -624 2 -710 15 -710 10 0 15 -10 15 -30 l0 -30 130 0
130 0 0 238 0 237 55 60 55 60 19 -25 c11 -14 120 -146 243 -295 l223 -270
152 -3 c199 -3 199 -4 71 151 -169 205 -322 388 -429 517 l-106 127 36 40 c20
22 81 92 136 154 55 63 116 132 136 154 223 245 256 294 204 304 -11 2 -24 9
-28 17 -6 11 -39 14 -146 14 l-138 0 -239 -292 -239 -291 -3 276 -2 277 -25 0
c-16 0 -25 6 -25 15 0 13 -20 15 -120 15 l-120 0 0 -710z m247 208 c-1 -79 -3
-15 -3 142 0 157 2 221 3 143 2 -79 2 -207 0 -285z m787 410 c-24 -40 -498
-567 -505 -562 -13 8 -7 15 256 313 127 143 236 261 243 261 8 0 10 -5 6 -12z
m-664 -750 c-1 -7 -28 -42 -60 -78 l-60 -65 0 -222 0 -223 -92 2 -93 2 88 3
87 4 0 230 0 230 58 65 c57 64 72 75 72 52z m713 -585 c-34 -2 -93 -2 -130 0
-37 2 -9 3 62 3 72 0 102 -1 68 -3z"/>
</g>
</svg>
